<svg width="40" height="13" viewBox="0 0 40 13" fill="none" xmlns="http://www.w3.org/2000/svg">
<path id="Vector" d="M26.0535 0C23.2133 0 20.6752 1.43876 20.6752 4.09697C20.6752 7.14542 25.1766 7.35595 25.1766 8.88741C25.1766 9.53225 24.4205 10.1095 23.1291 10.1095C21.2963 10.1095 19.9265 9.30293 19.9265 9.30293L19.3404 11.9854C19.3404 11.9854 20.9184 12.6667 23.0135 12.6667C26.1186 12.6667 28.562 11.1572 28.562 8.45363C28.562 5.23237 24.0419 5.02806 24.0419 3.60664C24.0419 3.10143 24.6626 2.54798 25.9503 2.54798C27.4032 2.54798 28.5886 3.13458 28.5886 3.13458L29.1622 0.543829C29.1622 0.543829 27.8724 0 26.0535 0ZM0.0687888 0.195547L0 0.586601C0 0.586601 1.19487 0.800305 2.27103 1.22666C3.65666 1.7155 3.7554 2.00012 3.98875 2.88405L6.53169 12.465H9.94062L15.1923 0.195547H11.7912L8.4167 8.53761L7.03972 1.46646C6.91343 0.657197 6.27375 0.195547 5.49077 0.195547H0.0687888ZM16.5599 0.195547L13.8919 12.465H17.1351L19.7937 0.195508H16.5599V0.195547ZM34.6483 0.195547C33.8663 0.195547 33.4519 0.604759 33.1479 1.31983L28.3964 12.465H31.7974L32.4555 10.6074H36.5989L36.9991 12.465H40L37.382 0.195547H34.6483ZM35.0906 3.51037L36.0988 8.11446H33.3979L35.0906 3.51037Z" fill="#1434CB"/>
</svg>
